<svg xmlns="http://www.w3.org/2000/svg" aria-hidden="true" style="position:absolute;width:0;height:0;overflow:hidden">
  <defs>
    <symbol id="icon-Airbnb-Logo" viewBox="0 0 102 32">
      <path fill="#ff385c" d="M29.171 22.679c-.16-.39-.309-.8-.469-1.15l-.738-1.67-.03-.03c-2.195-4.8-4.539-9.68-7.023-14.48l-.1-.2c-.249-.47-.499-.99-.758-1.47-.319-.57-.629-1.18-1.137-1.76A5.272 5.272 0 0 0 12.563.487a5.285 5.285 0 0 0-1.827 1.432c-.469.58-.818 1.19-1.137 1.76-.249.52-.499 1.03-.758 1.5l-.1.2c-2.444 4.8-4.829 9.68-7.023 14.48l-.06.06c-.219.52-.479 1.06-.728 1.64-.16.35-.319.73-.479 1.15a6.808 6.808 0 0 0 3.736 8.776 6.776 6.776 0 0 0 3.448.455 8.341 8.341 0 0 0 3.172-1.1c1.297-.73 2.544-1.79 3.941-3.32 1.397 1.53 2.674 2.59 3.941 3.33A8.337 8.337 0 0 0 22.7 32c1.635.007 3.218-.58 4.456-1.651s2.047-2.556 2.278-4.179a5.957 5.957 0 0 0-.259-3.5v.01zm-14.326 1.66c-1.716-2.2-2.833-4.22-3.212-5.95a5.216 5.216 0 0 1-.1-1.96c.07-.51.259-.96.519-1.34.599-.87 1.646-1.41 2.793-1.41a3.3 3.3 0 0 1 2.794 1.4c.259.4.449.84.509 1.35.1.58.06 1.25-.1 1.96-.379 1.7-1.497 3.74-3.202 5.95zm12.71 1.48a4.76 4.76 0 0 1-2.893 3.75c-.758.32-1.596.41-2.414.32a6.236 6.236 0 0 1-2.414-.84 15.638 15.638 0 0 1-3.622-3.1c2.095-2.6 3.362-4.97 3.841-7.08.229-1 .259-1.9.16-2.73a5.54 5.54 0 0 0-.858-2.2 5.342 5.342 0 0 0-4.479-2.28c-1.846 0-3.492.86-4.489 2.27a5.194 5.194 0 0 0-.848 2.21c-.13.84-.1 1.77.16 2.73.479 2.11 1.776 4.51 3.841 7.1a14.304 14.304 0 0 1-3.621 3.12c-.828.48-1.616.73-2.414.83-1.241.159-2.495-.179-3.489-.941s-1.647-1.887-1.819-3.129c-.1-.8-.03-1.6.289-2.5.1-.32.249-.64.409-1.02.219-.52.479-1.06.728-1.6l.04-.07a326.77 326.77 0 0 1 6.954-14.41l.1-.2c.249-.48.499-.99.758-1.47.259-.51.539-1 .898-1.4a3.307 3.307 0 0 1 5.078 0c.349.4.638.89.898 1.4.249.48.499 1 .758 1.47l.1.2c2.434 4.77 4.789 9.64 6.984 14.41l.03.03c.259.52.479 1.1.728 1.6.16.39.319.7.419 1.03.19.9.289 1.7.19 2.5zm13.887-1.7a5 5 0 0 1-3.941-1.83 6.56 6.56 0 0 1-1.596-4.48 6.974 6.974 0 0 1 1.656-4.58c.502-.589 1.126-1.061 1.829-1.383s1.468-.484 2.241-.477c.727-.02 1.448.146 2.093.482s1.196.831 1.598 1.438l.1-1.57h2.913v12.08h-2.923l-.1-1.76a4.507 4.507 0 0 1-3.871 2.08zm.758-2.88c.579 0 1.087-.16 1.566-.45a3.76 3.76 0 0 0 1.078-1.25c.249-.51.379-1.12.379-1.8a3.426 3.426 0 0 0-1.467-3.04 2.934 2.934 0 0 0-3.112 0c-.439.32-.798.74-1.077 1.25a4.009 4.009 0 0 0-.379 1.8 3.426 3.426 0 0 0 1.467 3.04c.469.29.978.45 1.546.45zm11.124-12.78c0 .35-.06.67-.22.93-.16.25-.379.48-.668.64s-.599.22-.918.22-.639-.06-.928-.22a1.83 1.83 0 0 1-.668-.64 1.838 1.838 0 0 1-.22-.93c0-.36.07-.68.22-.93.16-.3.389-.48.668-.64.289-.16.599-.23.928-.23a1.829 1.829 0 0 1 1.596.86c.145.292.217.614.21.94zm-3.392 15.3v-12.06h3.172v12.08h-3.182l.01-.02zm11.653-8.9v.04c-.15-.07-.349-.1-.499-.13-.2-.04-.359-.04-.549-.04-.888 0-1.556.26-1.995.8-.479.55-.698 1.32-.698 2.31v5.93h-3.182v-12.08h2.923l.1 1.83c.319-.64.698-1.12 1.237-1.48a3.09 3.09 0 0 1 1.806-.5c.23 0 .449.02.639.06.1.03.16.03.219.06v3.2zm1.277 8.9V6.739h3.173v6.5c.449-.58.957-1.03 1.596-1.38a4.995 4.995 0 0 1 6.066 1.31 6.557 6.557 0 0 1 1.596 4.49 6.969 6.969 0 0 1-1.656 4.58 5.269 5.269 0 0 1-4.07 1.86c-.727.02-1.448-.146-2.093-.482s-1.196-.831-1.598-1.438l-.1 1.57-2.913.03v-.02zm6.135-2.52c.569 0 1.078-.16 1.556-.45a3.76 3.76 0 0 0 1.078-1.25c.259-.51.379-1.12.379-1.8 0-.67-.12-1.28-.379-1.79a3.738 3.738 0 0 0-1.078-1.25 2.934 2.934 0 0 0-3.112 0c-.449.32-.799.74-1.088 1.25a4.009 4.009 0 0 0-.379 1.8 3.426 3.426 0 0 0 1.467 3.04c.468.29.977.45 1.556.45zm7.493 2.53v-12.08h2.923l.1 1.57a3.951 3.951 0 0 1 3.532-1.89c.804-.014 1.594.21 2.272.644s1.213 1.059 1.539 1.796c.349.76.539 1.7.539 2.75v7.24h-3.183v-6.82c0-.84-.189-1.5-.568-1.99-.38-.48-.898-.74-1.556-.74-.479 0-.898.1-1.267.32a2.5 2.5 0 0 0-.858.93 2.7 2.7 0 0 0-.319 1.35v6.92h-3.153zm12.49 0V6.729h3.182v6.5a4.664 4.664 0 0 1 3.722-1.89 5.003 5.003 0 0 1 3.941 1.83 6.578 6.578 0 0 1 1.586 4.48 6.957 6.957 0 0 1-1.656 4.58 5.269 5.269 0 0 1-4.07 1.86c-.727.02-1.448-.146-2.093-.482s-1.196-.831-1.598-1.438l-.09 1.57-2.923.03zm6.166-2.53c.579 0 1.087-.16 1.556-.45.449-.32.798-.74 1.087-1.25.25-.51.379-1.12.379-1.8a3.426 3.426 0 0 0-1.466-3.04 2.934 2.934 0 0 0-3.112 0c-.439.32-.798.74-1.077 1.25a3.652 3.652 0 0 0-.38 1.8 3.416 3.416 0 0 0 1.467 3.04c.469.29.948.45 1.546.45z" style="fill:var(--color1, #ff385c)"/>
    </symbol>
    <symbol id="icon-FedEx-Logo" viewBox="0 0 107 32">
      <path fill="#f60" d="m79.321 31.042 8.896-9.852-8.896-9.854h9.386l4.406 4.786 4.242-4.786h9.058l-8.853 9.813 8.975 9.893H97.11l-4.366-4.826-4.325 4.826H79.32z" style="fill:var(--color2, #f60)"/>
      <path fill="#f60" d="M79.321 6.919H69.246v4.417h10.075v6.657H69.246v6.111h10.075v6.938h-17.48V0h17.48v6.919z" style="fill:var(--color2, #f60)"/>
      <path fill="#652c8f" d="M54.468 0v12.704h-.081c-1.633-1.85-3.672-2.492-6.039-2.492-4.848 0-8.499 3.248-9.781 7.543-1.462-4.732-5.232-7.632-10.822-7.632-4.54 0-8.125 2.009-9.996 5.282v-4.068H8.365V6.92h10.241V0H.001v31.043h8.365V17.994h8.338a12.185 12.185 0 0 0-.381 3.068c0 6.475 5.018 11.019 11.423 11.019 5.386 0 8.935-2.492 10.812-7.036H31.39c-.97 1.365-1.705 1.77-3.644 1.77-2.248 0-4.186-1.933-4.186-4.225h14.597c.633 5.143 4.698 9.579 10.275 9.579a7.175 7.175 0 0 0 5.956-3.136h.081v2.01h7.374V.001h-7.374zM23.791 18.086c.465-1.972 2.016-3.26 3.953-3.26 2.132 0 3.604 1.249 3.992 3.26h-7.945zm26.202 8.23c-2.718 0-4.407-2.496-4.407-5.103 0-2.786 1.469-5.466 4.407-5.466 3.046 0 4.26 2.679 4.26 5.466 0 2.642-1.286 5.103-4.26 5.103z" style="fill:var(--color3, #652c8f)"/>
    </symbol>
    <symbol id="icon-Google-Logo" viewBox="0 0 93 32">
      <path fill="#ea4335" d="M39.763 16.41c0 4.442-3.432 7.715-7.644 7.715s-7.644-3.273-7.644-7.715c0-4.473 3.432-7.715 7.644-7.715s7.644 3.242 7.644 7.715zm-3.346 0c0-2.776-1.989-4.675-4.298-4.675s-4.298 1.899-4.298 4.675c0 2.748 1.989 4.675 4.298 4.675s4.298-1.93 4.298-4.675z" style="fill:var(--color4, #ea4335)"/>
      <path fill="#fbbc05" d="M56.253 16.41c0 4.442-3.432 7.715-7.644 7.715s-7.644-3.273-7.644-7.715c0-4.47 3.432-7.715 7.644-7.715s7.644 3.242 7.644 7.715zm-3.346 0c0-2.776-1.989-4.675-4.298-4.675s-4.298 1.899-4.298 4.675c0 2.748 1.989 4.675 4.298 4.675s4.298-1.93 4.298-4.675z" style="fill:var(--color5, #fbbc05)"/>
      <path fill="#4285f4" d="M72.055 9.162v13.85c0 5.697-3.318 8.024-7.242 8.024-3.693 0-5.915-2.501-6.754-4.546l2.913-1.228c.519 1.256 1.79 2.737 3.837 2.737 2.511 0 4.067-1.569 4.067-4.522v-1.11h-.116c-.749.936-2.192 1.753-4.013 1.753-3.81 0-7.3-3.36-7.3-7.683 0-4.355 3.49-7.743 7.3-7.743 1.818 0 3.26.817 4.013 1.725h.116V9.163h3.178v-.004zm-2.941 7.276c0-2.717-1.789-4.703-4.067-4.703-2.308 0-4.242 1.986-4.242 4.703 0 2.689 1.934 4.647 4.242 4.647 2.278 0 4.067-1.958 4.067-4.647z" style="fill:var(--color6, #4285f4)"/>
      <path fill="#34a853" d="M77.294 1.043v22.609h-3.263V1.043h3.263z" style="fill:var(--color7, #34a853)"/>
      <path fill="#ea4335" d="m90.012 18.95 2.597 1.753c-.838 1.256-2.858 3.419-6.348 3.419-4.329 0-7.561-3.388-7.561-7.715 0-4.588 3.26-7.715 7.187-7.715 3.954 0 5.888 3.186 6.52 4.908l.348.876-10.186 4.271c.78 1.548 1.992 2.337 3.693 2.337 1.704 0 2.886-.849 3.751-2.136zm-7.994-2.776 6.808-2.863c-.374-.964-1.501-1.635-2.827-1.635-1.7 0-4.068 1.52-3.981 4.497z" style="fill:var(--color4, #ea4335)"/>
      <path fill="#4285f4" d="M12.123 14.403V11.13h10.893c.107.57.161 1.245.161 1.976 0 2.456-.663 5.492-2.8 7.656-2.078 2.191-4.734 3.36-8.252 3.36-6.52 0-12.003-5.377-12.003-11.979S5.605.164 12.125.164c3.607 0 6.177 1.433 8.107 3.301l-2.281 2.31c-1.384-1.315-3.26-2.337-5.83-2.337-4.761 0-8.485 3.885-8.485 8.706s3.724 8.706 8.485 8.706c3.088 0 4.847-1.256 5.974-2.397.914-.925 1.515-2.247 1.752-4.052l-7.726.003z" style="fill:var(--color6, #4285f4)"/>
    </symbol>
    <symbol id="icon-Group-190" viewBox="0 0 35 32">
      <path fill="#02bc6b" d="M2.71 29.802A2.718 2.718 0 0 1 0 27.092v-9.473h6.821v-.011h4.099c1.057-.027 1.951-.948 1.951-2.032a2.047 2.047 0 0 0-2.032-2.032L0 13.546v-2.711c0-1.49 1.219-2.71 2.71-2.71h8.129c2.059 0 3.821.732 5.257 2.195 1.463 1.436 2.195 3.197 2.195 5.257 0 2.032-.705 3.794-2.141 5.23s-3.17 2.195-5.203 2.222H5.419v4.065c0 1.49-1.219 2.71-2.71 2.71z" style="fill:var(--color8, #02bc6b)"/>
      <path fill="#02897a" d="M21.706 4.98c2.994 2.908 4.502 6.529 4.502 10.646 0 4.048-1.445 7.666-4.393 10.583l-4.185-3.937c1.833-1.814 2.733-3.998 2.733-6.645 0-2.667-.927-4.848-2.804-6.671l4.146-3.975z" style="fill:var(--color9, #02897a)"/>
      <path fill="#035b81" d="M28.113 0c4.312 4.305 6.482 9.643 6.482 15.77 0 6.031-2.082 11.366-6.323 15.68l-4.039-3.946c3.159-3.214 4.707-7.112 4.707-11.734 0-4.669-1.6-8.563-4.828-11.786L28.114 0z" style="fill:var(--color10, #035b81)"/>
      <path fill="#028e37" d="M0 23.051h5.419v4.042c0 1.49-1.219 2.71-2.71 2.71s-2.71-1.219-2.71-2.71v-4.042z" style="fill:var(--color11, #028e37)"/>
    </symbol>
    <symbol id="icon-icon-1" viewBox="0 0 28 32">
      <path fill="#02897a" d="M9.806 0h8.258c5.416 0 9.806 4.391 9.806 9.806v8.258c0 5.416-4.39 9.806-9.806 9.806H9.806C4.39 27.87 0 23.48 0 18.064V9.806C0 4.39 4.391 0 9.806 0z" style="fill:var(--color9, #02897a)"/>
      <path fill="#fff" d="m16.576 14.76-4.719-4.719a.275.275 0 0 0-.207-.088.298.298 0 0 0-.111.023.294.294 0 0 0-.184.272v6.931a.296.296 0 0 0 .295.295.29.29 0 0 0 .207-.088l1.438-1.438.88 2.083a.298.298 0 0 0 .387.157l.816-.346a.297.297 0 0 0 .157-.387l-.926-2.194h1.76c.12 0 .226-.074.272-.184a.284.284 0 0 0-.065-.318z" style="fill:var(--color12, #fff)"/>
    </symbol>
    <symbol id="icon-icon-2" viewBox="0 0 28 32">
      <path fill="#4d8dff" d="M9.806 0h8.258c5.416 0 9.806 4.391 9.806 9.806v8.258c0 5.416-4.39 9.806-9.806 9.806H9.806C4.39 27.87 0 23.48 0 18.064V9.806C0 4.39 4.391 0 9.806 0z" style="fill:var(--color13, #4d8dff)"/>
      <path fill="#fff" d="m14.184 13.235.604.281.899-.267v-.627c0-1.065-.899-1.917-1.972-1.917-1.069 0-1.972.848-1.972 1.903v2.857c0 .263-.212.47-.47.47s-.47-.207-.47-.47v-1.207H9.291v1.226c0 1.092.885 1.977 1.977 1.977 1.083 0 1.977-.871 1.977-1.949v-2.82c0-.258.212-.47.47-.47s.47.212.47.47v.544zm2.443 1.023v1.267c0 .258-.212.465-.47.465s-.47-.207-.47-.465v-1.244l-.899.267-.604-.281v1.235a1.97 1.97 0 0 0 1.977 1.959 1.977 1.977 0 0 0 1.977-1.977v-1.226h-1.512z" style="fill:var(--color12, #fff)"/>
    </symbol>
    <symbol id="icon-icon-3-" viewBox="0 0 32 32">
      <path fill="#f03e3d" d="M12.69 0h6.621C25.1 0 29.794 4.693 29.794 10.483v6.621c0 5.789-4.693 10.483-10.483 10.483H12.69c-5.789 0-10.483-4.693-10.483-10.483v-6.621C2.207 4.694 6.9 0 12.69 0z" style="fill:var(--color14, #f03e3d)"/>
      <path fill="#fff" d="M16 18.286c.079 0 .158-.03.217-.089l3.069-2.956c.044-.044 1.128-1.034 1.128-2.217 0-1.443-.882-2.305-2.355-2.305-.862 0-1.67.68-2.059 1.064-.389-.384-1.197-1.064-2.059-1.064-1.473 0-2.355.862-2.355 2.305 0 1.182 1.084 2.172 1.123 2.207l3.074 2.966a.307.307 0 0 0 .217.089z" style="fill:var(--color12, #fff)"/>
    </symbol>
    <symbol id="icon-icon-3" viewBox="0 0 28 32">
      <path fill="#740a76" d="M9.806 0h8.258c5.416 0 9.806 4.391 9.806 9.806v8.258c0 5.416-4.39 9.806-9.806 9.806H9.806C4.39 27.87 0 23.48 0 18.064V9.806C0 4.39 4.391 0 9.806 0z" style="fill:var(--color15, #740a76)"/>
      <path fill="#fff" d="M13.935 17.622a.289.289 0 0 0 .203-.083l2.871-2.765c.041-.041 1.055-.968 1.055-2.074 0-1.35-.825-2.157-2.203-2.157-.806 0-1.562.636-1.926.995-.364-.359-1.12-.995-1.926-.995-1.378 0-2.203.806-2.203 2.157 0 1.106 1.014 2.032 1.051 2.065l2.876 2.774a.287.287 0 0 0 .203.083z" style="fill:var(--color12, #fff)"/>
    </symbol>
    <symbol id="icon-icon-4" viewBox="0 0 32 32">
      <path fill="#f03e3d" d="M11.259 0h9.481c6.218 0 11.259 5.041 11.259 11.259v9.481c0 6.218-5.041 11.259-11.259 11.259h-9.481C5.041 31.999 0 26.958 0 20.74v-9.481C0 5.041 5.041 0 11.259 0z" style="fill:var(--color14, #f03e3d)"/>
      <path fill="#fff" d="M19.302 12.106h.508a.167.167 0 0 0 .169-.169v-.339a.167.167 0 0 0-.169-.169h-7.788a.167.167 0 0 0-.169.169v.339c0 .095.074.169.169.169h.508c0 1.958.936 3.376 1.973 4.063-1.037.688-1.973 2.106-1.973 4.064h-.508a.167.167 0 0 0-.169.169v.339c0 .095.074.169.169.169h7.788a.167.167 0 0 0 .169-.169v-.339a.167.167 0 0 0-.169-.169h-.508c0-1.958-.936-3.376-1.974-4.064 1.037-.688 1.974-2.106 1.974-4.063zm-.678 0c0 .772-.175 1.455-.45 2.032h-4.519a4.693 4.693 0 0 1-.45-2.032h5.418zm-.301 6.434h-4.815c.392-1.021 1.095-1.746 1.799-2.032h1.217c.704.286 1.407 1.011 1.799 2.032z" style="fill:var(--color12, #fff)"/>
    </symbol>
    <symbol id="icon-icon-5" viewBox="0 0 33 32">
      <path fill="#f90" d="M12.667 1.333h6.726c6.259 0 11.333 5.074 11.333 11.333v6.667c0 6.259-5.074 11.333-11.333 11.333h-6.726c-6.259 0-11.333-5.074-11.333-11.333v-6.667c0-6.259 5.074-11.333 11.333-11.333z" style="fill:var(--color16, #f90)"/>
      <path fill="none" stroke="#fff" stroke-width="2.667" d="M12.667 1.333h6.726c6.259 0 11.333 5.074 11.333 11.333v6.667c0 6.259-5.074 11.333-11.333 11.333h-6.726c-6.259 0-11.333-5.074-11.333-11.333v-6.667c0-6.259 5.074-11.333 11.333-11.333z" style="stroke:var(--color12, #fff)"/>
      <path fill="none" stroke="#f90" stroke-width="2.667" d="M12.667 1.333h6.726c6.259 0 11.333 5.074 11.333 11.333v6.667c0 6.259-5.074 11.333-11.333 11.333h-6.726c-6.259 0-11.333-5.074-11.333-11.333v-6.667c0-6.259 5.074-11.333 11.333-11.333z" style="stroke:var(--color16, #f90)"/>
      <path fill="#fff" d="M23.601 11.19a.722.722 0 0 0-1.036 0l-8.779 8.949-3.375-3.44c-.286-.292-.75-.292-1.036 0s-.286.765 0 1.056l3.893 3.968a.723.723 0 0 0 1.036 0l9.297-9.478a.757.757 0 0 0 0-1.056z" style="fill:var(--color12, #fff)"/>
    </symbol>
    <symbol id="icon-icon-6" viewBox="0 0 33 32">
      <path fill="#f03e3d" d="M12.667 1.333h6.726c6.259 0 11.333 5.074 11.333 11.333v6.667c0 6.259-5.074 11.333-11.333 11.333h-6.726c-6.259 0-11.333-5.074-11.333-11.333v-6.667c0-6.259 5.074-11.333 11.333-11.333z" style="fill:var(--color14, #f03e3d)"/>
      <path fill="none" stroke="#fff" stroke-width="2.667" d="M12.667 1.333h6.726c6.259 0 11.333 5.074 11.333 11.333v6.667c0 6.259-5.074 11.333-11.333 11.333h-6.726c-6.259 0-11.333-5.074-11.333-11.333v-6.667c0-6.259 5.074-11.333 11.333-11.333z" style="stroke:var(--color12, #fff)"/>
      <path fill="none" stroke="#f03e3d" stroke-width="2.667" d="M12.667 1.333h6.726c6.259 0 11.333 5.074 11.333 11.333v6.667c0 6.259-5.074 11.333-11.333 11.333h-6.726c-6.259 0-11.333-5.074-11.333-11.333v-6.667c0-6.259 5.074-11.333 11.333-11.333z" style="stroke:var(--color14, #f03e3d)"/>
      <path fill="#fff" d="M23.601 11.19a.722.722 0 0 0-1.036 0l-8.779 8.949-3.375-3.44c-.286-.292-.75-.292-1.036 0s-.286.765 0 1.056l3.893 3.968a.723.723 0 0 0 1.036 0l9.297-9.478a.757.757 0 0 0 0-1.056z" style="fill:var(--color12, #fff)"/>
    </symbol>
    <symbol id="icon-icon-7" viewBox="0 0 33 32">
      <path fill="#4d8dff" d="M12.667 1.333h6.726c6.259 0 11.333 5.074 11.333 11.333v6.667c0 6.259-5.074 11.333-11.333 11.333h-6.726c-6.259 0-11.333-5.074-11.333-11.333v-6.667c0-6.259 5.074-11.333 11.333-11.333z" style="fill:var(--color13, #4d8dff)"/>
      <path fill="none" stroke="#fff" stroke-width="2.667" d="M12.667 1.333h6.726c6.259 0 11.333 5.074 11.333 11.333v6.667c0 6.259-5.074 11.333-11.333 11.333h-6.726c-6.259 0-11.333-5.074-11.333-11.333v-6.667c0-6.259 5.074-11.333 11.333-11.333z" style="stroke:var(--color12, #fff)"/>
      <path fill="none" stroke="#4d8dff" stroke-width="2.667" d="M12.667 1.333h6.726c6.259 0 11.333 5.074 11.333 11.333v6.667c0 6.259-5.074 11.333-11.333 11.333h-6.726c-6.259 0-11.333-5.074-11.333-11.333v-6.667c0-6.259 5.074-11.333 11.333-11.333z" style="stroke:var(--color13, #4d8dff)"/>
      <path fill="#fff" d="M23.601 11.19a.722.722 0 0 0-1.036 0l-8.779 8.949-3.375-3.44c-.286-.292-.75-.292-1.036 0s-.286.765 0 1.056l3.893 3.968a.723.723 0 0 0 1.036 0l9.297-9.478a.757.757 0 0 0 0-1.056z" style="fill:var(--color12, #fff)"/>
    </symbol>
    <symbol id="icon-Microsoft-Logo" viewBox="0 0 155 32">
      <path fill="#737373" d="m54.68 18.431-.923 2.53h-.077a17.536 17.536 0 0 0-.898-2.481l-4.95-12.031h-4.847v19.175h3.206V13.791c0-.744 0-1.588-.026-2.629-.026-.521-.077-.918-.103-1.216h.077c.154.744.333 1.29.462 1.637l5.95 13.991h2.257l5.899-14.115c.128-.322.257-.967.385-1.513h.077a175.576 175.576 0 0 0-.154 3.448v12.155h3.411V6.399h-4.668L54.68 18.43zm12.977-6.623h3.334v13.743h-3.334V11.808zm1.693-5.805c-.564 0-1.026.198-1.411.546s-.59.794-.59 1.34c0 .521.205.967.59 1.315s.846.521 1.411.521 1.052-.198 1.411-.521c.385-.347.59-.794.59-1.315s-.205-.967-.59-1.34c-.333-.347-.821-.546-1.411-.546zm13.465 5.681a9.602 9.602 0 0 0-1.872-.198c-1.513 0-2.898.322-4.052.967s-2.077 1.538-2.667 2.654c-.616 1.141-.924 2.456-.924 3.969 0 1.315.308 2.481.897 3.547.59 1.042 1.411 1.885 2.513 2.456 1.052.571 2.283.868 3.668.868 1.591 0 2.95-.322 4.027-.918l.025-.025v-2.977l-.128.099a5.82 5.82 0 0 1-1.616.819c-.59.198-1.129.298-1.59.298-1.334 0-2.385-.372-3.129-1.191-.769-.794-1.154-1.885-1.154-3.25 0-1.414.385-2.53 1.18-3.349s1.847-1.24 3.129-1.24c1.077 0 2.18.347 3.18 1.042l.128.099v-3.15l-.025-.025c-.436-.174-.924-.372-1.591-.496zm11.002-.1c-.82 0-1.59.248-2.257.769-.564.447-.949 1.091-1.283 1.86h-.025v-2.406h-3.334V25.55h3.334v-7.02c0-1.191.257-2.183.821-2.902.564-.744 1.282-1.116 2.154-1.116.308 0 .615.074 1 .124.359.099.616.198.795.322l.129.099v-3.225l-.077-.025c-.231-.149-.692-.223-1.257-.223zm9.08-.074c-2.334 0-4.207.67-5.514 1.985-1.334 1.315-1.975 3.126-1.975 5.408 0 2.133.667 3.87 1.95 5.135 1.282 1.24 3.026 1.885 5.206 1.885 2.283 0 4.104-.67 5.412-2.009 1.334-1.34 1.975-3.126 1.975-5.333 0-2.183-.616-3.919-1.873-5.184-1.205-1.265-2.975-1.885-5.18-1.885zm2.667 10.567c-.615.769-1.59 1.141-2.796 1.141s-2.18-.372-2.872-1.191c-.692-.769-1.026-1.885-1.026-3.299 0-1.464.359-2.58 1.026-3.374.692-.794 1.641-1.191 2.847-1.191 1.18 0 2.103.372 2.77 1.141s1.025 1.885 1.025 3.349c-.051 1.488-.333 2.654-.975 3.423zm11.823-4.564c-1.051-.422-1.718-.744-2.025-1.017-.257-.248-.385-.595-.385-1.042 0-.372.153-.744.538-.992s.821-.372 1.462-.372c.564 0 1.154.099 1.719.248s1.077.372 1.487.67l.129.099v-3.026l-.077-.025a9.462 9.462 0 0 0-1.513-.422 10.647 10.647 0 0 0-1.641-.149c-1.59 0-2.898.372-3.924 1.191-1.026.769-1.513 1.811-1.513 3.026 0 .645.103 1.215.334 1.687s.564.918 1.025 1.29c.462.347 1.129.744 2.052 1.116.769.322 1.359.571 1.719.769s.59.422.769.595c.128.198.205.447.205.769 0 .918-.718 1.364-2.18 1.364-.564 0-1.154-.099-1.847-.322s-1.334-.546-1.873-.918l-.128-.099v3.15l.077.025c.487.223 1.077.372 1.795.546.719.124 1.359.223 1.924.223 1.719 0 3.129-.372 4.129-1.191 1.025-.794 1.564-1.811 1.564-3.126 0-.918-.257-1.736-.821-2.357a10.492 10.492 0 0 0-3.001-1.712zm12.619-6.003c-2.334 0-4.207.67-5.514 1.985s-1.975 3.126-1.975 5.408c0 2.133.667 3.87 1.95 5.135 1.282 1.24 3.026 1.885 5.206 1.885 2.283 0 4.104-.67 5.412-2.009 1.334-1.34 1.975-3.126 1.975-5.333 0-2.183-.616-3.919-1.873-5.184-1.205-1.265-2.975-1.885-5.18-1.885zm2.641 10.567c-.615.769-1.59 1.141-2.796 1.141-1.231 0-2.18-.372-2.872-1.191-.693-.769-1.026-1.885-1.026-3.299 0-1.464.359-2.58 1.026-3.374.692-.794 1.641-1.191 2.847-1.191 1.154 0 2.103.372 2.77 1.141s1.025 1.885 1.025 3.349c0 1.488-.333 2.654-.975 3.423zm22.237-7.615v-2.654h-3.36V7.74l-.103.025-3.257.943v3.101h-5.027v-1.736c0-.794.206-1.414.564-1.811s.898-.595 1.564-.595c.462 0 .949.099 1.488.322l.128.074V5.26l-.077-.025c-.461-.149-1.077-.248-1.872-.248-1 0-1.872.223-2.668.595a4.372 4.372 0 0 0-1.82 1.761c-.436.744-.667 1.588-.667 2.555v1.91h-2.334v2.629h2.334V25.55h3.359V14.462h5.027v7.07c0 2.902 1.411 4.366 4.232 4.366.462 0 .949-.074 1.411-.149.487-.099.846-.223 1.052-.322l.025-.025v-2.654l-.129.099a2.221 2.221 0 0 1-.692.298 2.432 2.432 0 0 1-.667.099c-.666 0-1.128-.149-1.462-.521-.308-.347-.461-.918-.461-1.761v-6.499h3.411z" style="fill:var(--color17, #737373)"/>
      <path fill="#f25022" d="M0 0h15.722v15.206H0V0z" style="fill:var(--color18, #f25022)"/>
      <path fill="#7fba00" d="M17.363 0h15.722v15.206H17.363V0z" style="fill:var(--color19, #7fba00)"/>
      <path fill="#00a4ef" d="M0 16.794h15.722V32H0V16.794z" style="fill:var(--color20, #00a4ef)"/>
      <path fill="#ffb900" d="M17.363 16.794h15.722V32H17.363V16.794z" style="fill:var(--color21, #ffb900)"/>
    </symbol>
    <symbol id="icon-mobile-screen" viewBox="0 0 21 32">
      <path fill="#02897a" d="M16.935 2.286H3.636c-1.377 0-2.494 1.152-2.494 2.571v22.286c0 1.42 1.117 2.571 2.494 2.571h13.299c1.377 0 2.494-1.152 2.494-2.571V4.857c0-1.42-1.117-2.571-2.494-2.571zm-4.156 23.952c0 .52-.374.905-.831.905H8.577c-.41 0-.784-.386-.784-.857s.374-.857.831-.857h3.325c.457 0 .831.386.831.809zm3.325-3.381H4.468V5.714h11.636v17.143z" style="fill:var(--color9, #02897a)"/>
    </symbol>
    <symbol id="icon-price-2" viewBox="0 0 49 32">
      <path fill="#e0e0e0" d="M18.504 23.04v-3.584h1.341c.304 0 .565.049.783.148.218.096.386.236.502.42.119.181.179.401.179.66 0 .253-.06.471-.179.655-.116.181-.283.321-.502.42s-.48.148-.783.148h-1.132l.169-.179v1.311h-.379zm.379-1.28-.169-.184h1.121c.358 0 .63-.077.814-.23.188-.157.282-.377.282-.66 0-.287-.094-.509-.282-.666-.184-.157-.456-.236-.814-.236h-1.121l.169-.179v2.156zm4.328 1.306c-.28 0-.526-.058-.737-.174a1.311 1.311 0 0 1-.497-.486c-.119-.208-.179-.445-.179-.712s.056-.502.169-.707c.116-.205.273-.365.471-.481.201-.119.427-.179.676-.179.253 0 .476.058.671.174a1.2 1.2 0 0 1 .466.481c.113.205.169.442.169.712a.387.387 0 0 1-.005.056v.056h-2.34v-.271h2.145l-.143.108a1.03 1.03 0 0 0-.128-.517c-.082-.154-.195-.273-.338-.358s-.309-.128-.497-.128c-.184 0-.35.043-.497.128s-.261.205-.343.358-.123.329-.123.527v.056c0 .205.044.386.133.543a.99.99 0 0 0 .379.364c.164.085.35.128.558.128.164 0 .316-.029.456-.087a.96.96 0 0 0 .369-.266l.205.236a1.15 1.15 0 0 1-.451.328 1.497 1.497 0 0 1-.589.113zm1.98-.026v-2.688h.348v.732l-.036-.128a.871.871 0 0 1 .379-.466 1.24 1.24 0 0 1 .66-.164v.353h-.041a.192.192 0 0 0-.041-.005c-.283 0-.505.087-.666.261-.16.171-.241.415-.241.732v1.372h-.364zm2.824.512 1.69-4.823h.333l-1.69 4.823h-.333zm7.113-3.226c.218 0 .408.043.568.128.164.082.29.208.379.379.092.171.138.386.138.645v1.562h-.364v-1.526c0-.283-.068-.497-.205-.64-.133-.147-.323-.22-.568-.22a.942.942 0 0 0-.481.118.775.775 0 0 0-.312.333 1.151 1.151 0 0 0-.108.522v1.413h-.364v-1.526c0-.283-.068-.497-.205-.64-.137-.147-.328-.22-.573-.22a.931.931 0 0 0-.476.118.757.757 0 0 0-.317.333 1.151 1.151 0 0 0-.108.522v1.413h-.364v-2.688h.348v.727l-.056-.128a.952.952 0 0 1 .394-.456c.184-.113.401-.169.65-.169.263 0 .486.067.671.2.184.13.304.326.358.589l-.143-.056c.078-.218.217-.394.415-.527.201-.137.442-.205.722-.205zm3.199 2.74c-.26 0-.493-.058-.701-.174a1.325 1.325 0 0 1-.486-.486 1.397 1.397 0 0 1-.179-.712c0-.27.06-.507.179-.712s.282-.365.486-.481.438-.174.701-.174c.266 0 .502.058.707.174.208.116.37.276.486.481.119.205.179.442.179.712 0 .266-.06.503-.179.712a1.275 1.275 0 0 1-.486.486 1.428 1.428 0 0 1-.707.174zm0-.323c.195 0 .367-.043.517-.128a.943.943 0 0 0 .353-.369 1.12 1.12 0 0 0 .133-.553c0-.212-.044-.396-.133-.553a.91.91 0 0 0-.353-.364c-.15-.089-.321-.133-.512-.133s-.362.044-.512.133c-.15.085-.27.206-.358.364s-.133.341-.133.553c0 .208.044.393.133.553.089.157.208.28.358.369.15.085.319.128.507.128zm3.518-2.417c.218 0 .41.043.573.128a.869.869 0 0 1 .389.379c.095.171.143.386.143.645v1.562h-.364v-1.526c0-.283-.072-.497-.215-.64-.14-.147-.338-.22-.594-.22-.191 0-.358.039-.502.118a.792.792 0 0 0-.328.333 1.112 1.112 0 0 0-.113.522v1.413h-.364v-2.688h.348v.737l-.056-.138a.964.964 0 0 1 .41-.456c.188-.113.411-.169.671-.169zm2.97 2.74c-.252 0-.447-.068-.584-.205s-.205-.329-.205-.579v-2.524h.364v2.504c0 .157.039.278.118.364a.461.461 0 0 0 .348.128.583.583 0 0 0 .399-.138l.128.261a.663.663 0 0 1-.261.143 1.02 1.02 0 0 1-.307.046zm-1.27-2.412v-.302h1.664v.302h-1.664zm3.904-.328c.219 0 .41.043.573.128a.869.869 0 0 1 .389.379c.096.171.143.386.143.645v1.562h-.364v-1.526c0-.283-.072-.497-.215-.64-.14-.147-.338-.22-.594-.22-.191 0-.358.039-.502.118a.792.792 0 0 0-.328.333 1.112 1.112 0 0 0-.113.522v1.413h-.364v-3.799h.364v1.848l-.072-.138a.964.964 0 0 1 .41-.456c.188-.113.412-.169.671-.169z" style="fill:var(--color22, #e0e0e0)"/>
      <path fill="#fff" d="M6.865 24.932c-1.184 0-2.359-.154-3.526-.462-1.151-.324-2.14-.778-2.967-1.362l1.556-3.016c.649.47 1.394.843 2.237 1.119a8.461 8.461 0 0 0 2.602.413c.989 0 1.767-.195 2.335-.584s.851-.932.851-1.629c0-.438-.114-.827-.34-1.167s-.632-.6-1.216-.778c-.567-.178-1.37-.268-2.408-.268H1.636l.876-9.582h10.385v3.162H3.923l2.043-1.8-.608 6.834-2.043-1.8h3.599c1.686 0 3.04.235 4.061.705 1.038.454 1.792 1.078 2.262 1.873s.705 1.694.705 2.7a5.44 5.44 0 0 1-.754 2.797c-.503.843-1.281 1.532-2.335 2.067-1.038.519-2.367.778-3.988.778zM20.047 15.322V8.103h.768v7.219h-.768zm.277-.83c-.43 0-.842-.056-1.236-.169-.394-.118-.712-.269-.952-.453l.422-.937a3.118 3.118 0 0 0 1.774.561c.246 0 .443-.023.591-.069.154-.051.266-.12.338-.207s.108-.187.108-.3a.395.395 0 0 0-.169-.338 1.287 1.287 0 0 0-.445-.207 6.78 6.78 0 0 0-.614-.154 8.915 8.915 0 0 1-.668-.184c-.22-.072-.422-.164-.607-.276s-.335-.261-.453-.445c-.113-.184-.169-.42-.169-.707 0-.307.082-.586.246-.837.169-.256.42-.458.753-.607.338-.154.76-.23 1.267-.23.338 0 .671.041.998.123.328.077.617.195.868.353l-.384.945a3.178 3.178 0 0 0-.753-.315c-.251-.072-.497-.108-.737-.108s-.438.028-.591.084a.677.677 0 0 0-.33.223.488.488 0 0 0-.1.307c0 .138.056.251.169.338.113.082.261.148.445.2s.387.102.607.154c.225.051.448.11.668.177.225.067.43.156.614.269s.333.261.445.445c.118.184.177.417.177.699 0 .302-.084.579-.253.829s-.422.453-.76.607c-.333.154-.755.23-1.267.23z" style="fill:var(--color12, #fff)"/>
    </symbol>
    <symbol id="icon-price-3" viewBox="0 0 60 32">
      <path fill="#afafaf" d="M29.064 23.04v-3.584h1.341c.304 0 .565.049.783.148.218.096.386.236.502.42.119.181.179.401.179.66 0 .253-.06.471-.179.655-.116.181-.283.321-.502.42s-.48.148-.783.148h-1.132l.169-.179v1.311h-.379zm.379-1.28-.169-.184h1.121c.358 0 .63-.077.814-.23.188-.157.282-.377.282-.66 0-.287-.094-.509-.282-.666-.184-.157-.456-.236-.814-.236h-1.121l.169-.179v2.156zm4.328 1.306a1.51 1.51 0 0 1-.737-.174 1.311 1.311 0 0 1-.497-.486c-.119-.208-.179-.445-.179-.712s.056-.502.169-.707c.116-.205.273-.365.471-.481.202-.119.427-.179.676-.179.253 0 .476.058.671.174a1.2 1.2 0 0 1 .466.481c.113.205.169.442.169.712a.387.387 0 0 1-.005.056v.056h-2.34v-.271h2.145l-.143.108a1.03 1.03 0 0 0-.128-.517c-.082-.154-.195-.273-.338-.358s-.309-.128-.497-.128c-.184 0-.35.043-.497.128s-.261.205-.343.358-.123.329-.123.527v.056c0 .205.044.386.133.543a.997.997 0 0 0 .379.364c.164.085.35.128.558.128.164 0 .316-.029.456-.087a.96.96 0 0 0 .369-.266l.205.236a1.143 1.143 0 0 1-.451.328 1.497 1.497 0 0 1-.589.113zm1.98-.026v-2.688h.348v.732l-.036-.128a.871.871 0 0 1 .379-.466c.177-.109.397-.164.66-.164v.353h-.041a.2.2 0 0 0-.041-.005c-.284 0-.505.087-.666.261-.161.171-.241.415-.241.732v1.372h-.364zm2.824.512 1.69-4.823h.333l-1.69 4.823h-.333zm7.113-3.226c.218 0 .408.043.568.128.164.082.29.208.379.379.092.171.138.386.138.645v1.562h-.364v-1.526c0-.283-.068-.497-.205-.64-.133-.147-.323-.22-.568-.22a.942.942 0 0 0-.481.118.775.775 0 0 0-.312.333 1.151 1.151 0 0 0-.108.522v1.413h-.364v-1.526c0-.283-.068-.497-.205-.64-.137-.147-.328-.22-.573-.22a.931.931 0 0 0-.476.118.757.757 0 0 0-.317.333 1.151 1.151 0 0 0-.108.522v1.413h-.364v-2.688h.348v.727l-.056-.128a.952.952 0 0 1 .394-.456c.184-.113.401-.169.65-.169.263 0 .486.067.671.2.184.13.304.326.358.589l-.143-.056c.078-.218.217-.394.415-.527.201-.137.442-.205.722-.205zm3.199 2.74c-.26 0-.493-.058-.701-.174a1.325 1.325 0 0 1-.486-.486 1.397 1.397 0 0 1-.179-.712c0-.27.06-.507.179-.712s.282-.365.486-.481.438-.174.701-.174c.266 0 .502.058.707.174.208.116.37.276.486.481.119.205.179.442.179.712 0 .266-.06.503-.179.712a1.275 1.275 0 0 1-.486.486 1.428 1.428 0 0 1-.707.174zm0-.323c.195 0 .367-.043.517-.128a.943.943 0 0 0 .353-.369 1.12 1.12 0 0 0 .133-.553c0-.212-.044-.396-.133-.553a.91.91 0 0 0-.353-.364c-.15-.089-.321-.133-.512-.133s-.362.044-.512.133c-.15.085-.27.206-.358.364s-.133.341-.133.553c0 .208.044.393.133.553.089.157.208.28.358.369.15.085.319.128.507.128zm3.518-2.417c.218 0 .41.043.573.128a.869.869 0 0 1 .389.379c.095.171.143.386.143.645v1.562h-.364v-1.526c0-.283-.072-.497-.215-.64-.14-.147-.338-.22-.594-.22-.191 0-.358.039-.502.118a.792.792 0 0 0-.328.333 1.112 1.112 0 0 0-.113.522v1.413h-.364v-2.688h.348v.737l-.056-.138a.964.964 0 0 1 .41-.456c.188-.113.411-.169.671-.169zm2.97 2.74c-.252 0-.447-.068-.584-.205s-.205-.329-.205-.579v-2.524h.364v2.504c0 .157.039.278.118.364a.461.461 0 0 0 .348.128.583.583 0 0 0 .399-.138l.128.261a.663.663 0 0 1-.261.143 1.02 1.02 0 0 1-.307.046zm-1.27-2.412v-.302h1.664v.302h-1.664zm3.904-.328c.219 0 .41.043.573.128a.869.869 0 0 1 .389.379c.096.171.143.386.143.645v1.562h-.364v-1.526c0-.283-.072-.497-.215-.64-.14-.147-.338-.22-.594-.22-.191 0-.358.039-.502.118a.792.792 0 0 0-.328.333 1.112 1.112 0 0 0-.113.522v1.413h-.364v-3.799h.364v1.848l-.072-.138a.964.964 0 0 1 .41-.456c.188-.113.412-.169.671-.169z" style="fill:var(--color23, #afafaf)"/>
      <path fill="#02897a" d="M3.648 24.64V9.075l1.702 1.702H.243V7.615h7.345v17.024h-3.94zm14.257.292c-1.394 0-2.643-.34-3.745-1.021-1.103-.697-1.97-1.702-2.602-3.016s-.948-2.902-.948-4.767c0-1.865.316-3.453.948-4.767s1.5-2.31 2.602-2.991c1.103-.697 2.351-1.046 3.745-1.046 1.411 0 2.659.349 3.745 1.046 1.103.681 1.97 1.678 2.602 2.991s.948 2.902.948 4.767c0 1.865-.316 3.453-.948 4.767s-1.5 2.319-2.602 3.016c-1.086.681-2.335 1.021-3.745 1.021zm0-3.332c.665 0 1.24-.186 1.727-.559.503-.373.892-.965 1.167-1.775.292-.811.438-1.856.438-3.137s-.146-2.327-.438-3.137c-.276-.811-.665-1.402-1.167-1.775-.486-.373-1.062-.559-1.727-.559-.648 0-1.224.186-1.727.559-.486.373-.876.965-1.167 1.775-.276.811-.413 1.856-.413 3.137s.138 2.327.413 3.137c.292.811.681 1.402 1.167 1.775a2.822 2.822 0 0 0 1.727.559zM30.607 16.282V9.063h.768v7.219h-.768zm.277-.83c-.43 0-.842-.056-1.236-.169-.394-.118-.712-.269-.952-.453l.422-.937a3.118 3.118 0 0 0 1.774.561c.246 0 .443-.023.591-.069.154-.051.266-.12.338-.207s.108-.187.108-.3a.395.395 0 0 0-.169-.338 1.287 1.287 0 0 0-.445-.207 6.78 6.78 0 0 0-.614-.154 8.915 8.915 0 0 1-.668-.184c-.22-.072-.422-.164-.607-.276s-.335-.261-.453-.445c-.113-.184-.169-.42-.169-.707 0-.307.082-.586.246-.837.169-.256.42-.458.753-.607.338-.154.76-.23 1.267-.23.338 0 .671.041.998.123.328.077.617.195.868.353l-.384.945a3.178 3.178 0 0 0-.753-.315c-.251-.072-.497-.108-.737-.108s-.438.028-.591.084a.677.677 0 0 0-.33.223.488.488 0 0 0-.1.307c0 .138.056.251.169.338.113.082.261.148.445.2s.387.102.607.154c.225.051.448.11.668.177.225.067.43.156.614.269s.333.261.445.445c.118.184.177.417.177.699 0 .302-.084.579-.253.829s-.422.453-.76.607c-.333.154-.755.23-1.267.23z" style="fill:var(--color9, #02897a)"/>
    </symbol>
    <symbol id="icon-price" viewBox="0 0 50 32">
      <path fill="#afafaf" d="M19.464 23.04v-3.584h1.341c.304 0 .565.049.783.148.218.096.386.236.502.42.119.181.179.401.179.66 0 .253-.06.471-.179.655-.116.181-.283.321-.502.42s-.48.148-.783.148h-1.132l.169-.179v1.311h-.379zm.379-1.28-.169-.184h1.121c.358 0 .63-.077.814-.23.188-.157.282-.377.282-.66 0-.287-.094-.509-.282-.666-.184-.157-.456-.236-.814-.236h-1.121l.169-.179v2.156zm4.328 1.306c-.28 0-.526-.058-.737-.174a1.311 1.311 0 0 1-.497-.486c-.119-.208-.179-.445-.179-.712s.056-.502.169-.707c.116-.205.273-.365.471-.481.201-.119.427-.179.676-.179.253 0 .476.058.671.174a1.2 1.2 0 0 1 .466.481c.113.205.169.442.169.712a.387.387 0 0 1-.005.056v.056h-2.34v-.271h2.145l-.143.108a1.03 1.03 0 0 0-.128-.517c-.082-.154-.195-.273-.338-.358s-.309-.128-.497-.128c-.184 0-.35.043-.497.128s-.261.205-.343.358-.123.329-.123.527v.056c0 .205.044.386.133.543a.99.99 0 0 0 .379.364c.164.085.35.128.558.128.164 0 .316-.029.456-.087a.96.96 0 0 0 .369-.266l.205.236a1.15 1.15 0 0 1-.451.328 1.497 1.497 0 0 1-.589.113zm1.98-.026v-2.688h.348v.732l-.036-.128a.871.871 0 0 1 .379-.466 1.24 1.24 0 0 1 .66-.164v.353h-.041a.192.192 0 0 0-.041-.005c-.283 0-.505.087-.666.261-.16.171-.241.415-.241.732v1.372h-.364zm2.824.512 1.69-4.823h.333l-1.69 4.823h-.333zm7.113-3.226c.218 0 .408.043.568.128.164.082.29.208.379.379.092.171.138.386.138.645v1.562h-.364v-1.526c0-.283-.068-.497-.205-.64-.133-.147-.323-.22-.568-.22a.942.942 0 0 0-.481.118.775.775 0 0 0-.312.333 1.151 1.151 0 0 0-.108.522v1.413h-.364v-1.526c0-.283-.068-.497-.205-.64-.137-.147-.328-.22-.573-.22a.931.931 0 0 0-.476.118.757.757 0 0 0-.317.333 1.151 1.151 0 0 0-.108.522v1.413h-.364v-2.688h.348v.727l-.056-.128a.952.952 0 0 1 .394-.456c.184-.113.401-.169.65-.169.263 0 .486.067.671.2.184.13.304.326.358.589l-.143-.056c.078-.218.217-.394.415-.527.201-.137.442-.205.722-.205zm3.199 2.74c-.26 0-.493-.058-.701-.174a1.325 1.325 0 0 1-.486-.486 1.397 1.397 0 0 1-.179-.712c0-.27.06-.507.179-.712s.282-.365.486-.481.438-.174.701-.174c.266 0 .502.058.707.174.208.116.37.276.486.481.119.205.179.442.179.712 0 .266-.06.503-.179.712a1.275 1.275 0 0 1-.486.486 1.428 1.428 0 0 1-.707.174zm0-.323c.195 0 .367-.043.517-.128a.943.943 0 0 0 .353-.369 1.12 1.12 0 0 0 .133-.553c0-.212-.044-.396-.133-.553a.91.91 0 0 0-.353-.364c-.15-.089-.321-.133-.512-.133s-.362.044-.512.133c-.15.085-.27.206-.358.364s-.133.341-.133.553c0 .208.044.393.133.553.089.157.208.28.358.369.15.085.319.128.507.128zm3.518-2.417c.218 0 .41.043.573.128a.869.869 0 0 1 .389.379c.095.171.143.386.143.645v1.562h-.364v-1.526c0-.283-.072-.497-.215-.64-.14-.147-.338-.22-.594-.22-.191 0-.358.039-.502.118a.792.792 0 0 0-.328.333 1.112 1.112 0 0 0-.113.522v1.413h-.364v-2.688h.348v.737l-.056-.138a.964.964 0 0 1 .41-.456c.188-.113.411-.169.671-.169zm2.97 2.74c-.252 0-.447-.068-.584-.205s-.205-.329-.205-.579v-2.524h.364v2.504c0 .157.039.278.118.364a.461.461 0 0 0 .348.128.583.583 0 0 0 .399-.138l.128.261a.663.663 0 0 1-.261.143 1.02 1.02 0 0 1-.307.046zm-1.27-2.412v-.302h1.664v.302h-1.664zm3.904-.328c.219 0 .41.043.573.128a.869.869 0 0 1 .389.379c.096.171.143.386.143.645v1.562h-.364v-1.526c0-.283-.072-.497-.215-.64-.14-.147-.338-.22-.594-.22-.191 0-.358.039-.502.118a.792.792 0 0 0-.328.333 1.112 1.112 0 0 0-.113.522v1.413h-.364v-3.799h.364v1.848l-.072-.138a.964.964 0 0 1 .41-.456c.188-.113.412-.169.671-.169z" style="fill:var(--color23, #afafaf)"/>
      <path fill="#02897a" d="M8.311 24.932c-1.394 0-2.643-.34-3.745-1.021-1.103-.697-1.97-1.702-2.602-3.016s-.948-2.902-.948-4.767c0-1.865.316-3.453.948-4.767s1.5-2.31 2.602-2.991c1.103-.697 2.351-1.046 3.745-1.046 1.411 0 2.659.349 3.745 1.046 1.102.681 1.97 1.678 2.602 2.991s.948 2.902.948 4.767c0 1.865-.316 3.453-.948 4.767s-1.5 2.319-2.602 3.016c-1.086.681-2.335 1.021-3.745 1.021zm0-3.332c.665 0 1.24-.186 1.727-.559.503-.373.892-.965 1.167-1.775.292-.811.438-1.856.438-3.137s-.146-2.327-.438-3.137c-.276-.811-.665-1.402-1.167-1.775-.486-.373-1.062-.559-1.727-.559-.649 0-1.224.186-1.727.559-.486.373-.876.965-1.167 1.775-.276.811-.413 1.856-.413 3.137s.138 2.327.413 3.137c.292.811.681 1.402 1.167 1.775a2.822 2.822 0 0 0 1.727.559zM21.086 16.058h.644l.005-.63c1.181-.09 1.865-.717 1.868-1.664-.003-.93-.704-1.424-1.675-1.642l-.161-.038.011-1.364c.363.085.584.316.616.66h1.132c-.014-.903-.687-1.549-1.737-1.664l.005-.641h-.644l-.005.635c-1.066.104-1.819.747-1.814 1.677-.003.824.578 1.295 1.522 1.522l.262.065-.014 1.443c-.445-.085-.745-.357-.775-.813h-1.143c.027 1.102.75 1.718 1.906 1.819l-.005.633zm.66-1.639.011-1.274c.423.134.652.305.655.616-.003.33-.254.575-.665.657zm-.621-2.501c-.341-.117-.586-.295-.581-.608 0-.292.207-.518.592-.597l-.011 1.205z" style="fill:var(--color9, #02897a)"/>
    </symbol>
    <symbol id="icon-stars" viewBox="0 0 188 32">
      <path fill="#f3cd03" d="M32.404 11.487c-.102-.296-.29-.556-.541-.749s-.553-.308-.869-.333l-9.261-.725L17.725.944c-.128-.281-.335-.52-.598-.688a1.638 1.638 0 0 0-1.764-.001 1.6 1.6 0 0 0-.599.687l-4.008 8.737-9.261.725c-.311.024-.609.136-.857.323s-.437.439-.543.728a1.577 1.577 0 0 0 .394 1.689l6.844 6.57-2.421 10.321c-.074.312-.05.639.068.938s.324.556.592.739a1.64 1.64 0 0 0 1.826.013l8.845-5.807 8.845 5.807a1.646 1.646 0 0 0 1.857-.04c.268-.193.47-.462.579-.771s.118-.644.028-.958l-2.971-10.238 7.369-6.53c.482-.429.66-1.097.452-1.704zM71.393 11.487c-.102-.296-.29-.556-.541-.749s-.553-.308-.87-.333l-9.261-.725L56.713.944c-.128-.281-.335-.52-.598-.688a1.638 1.638 0 0 0-1.764-.001 1.6 1.6 0 0 0-.599.687l-4.008 8.737-9.261.725c-.311.024-.609.136-.857.323s-.436.439-.543.728-.125.602-.055.902c.07.3.226.573.449.787l6.844 6.57L43.9 30.035c-.073.312-.05.639.068.938a1.616 1.616 0 0 0 1.502 1.022c.326.002.644-.092.915-.27l8.846-5.807 8.845 5.807a1.646 1.646 0 0 0 1.857-.04c.268-.193.47-.462.579-.771s.118-.644.028-.958l-2.971-10.238 7.369-6.53c.483-.429.66-1.097.452-1.704zM110.376 11.487c-.102-.296-.29-.556-.541-.749s-.553-.308-.87-.333l-9.261-.725L95.696.944c-.128-.281-.335-.52-.598-.688a1.638 1.638 0 0 0-1.764-.001 1.6 1.6 0 0 0-.599.687l-4.008 8.737-9.261.725c-.311.024-.609.136-.857.323s-.437.439-.543.728a1.577 1.577 0 0 0 .394 1.689l6.844 6.57-2.42 10.321c-.073.312-.05.639.068.938s.324.556.592.739a1.64 1.64 0 0 0 1.826.013l8.846-5.807 8.845 5.807a1.646 1.646 0 0 0 1.857-.04 1.583 1.583 0 0 0 .607-1.729l-2.971-10.238 7.369-6.53c.482-.429.66-1.097.452-1.704zM149.369 11.487c-.102-.296-.29-.556-.541-.749s-.553-.308-.869-.333l-9.261-.725L134.69.944c-.128-.281-.335-.52-.598-.688a1.638 1.638 0 0 0-1.764-.001 1.6 1.6 0 0 0-.599.687l-4.008 8.737-9.261.725c-.311.024-.609.136-.857.323s-.437.439-.543.728a1.577 1.577 0 0 0 .394 1.689l6.844 6.57-2.42 10.321c-.074.312-.05.639.068.938s.324.556.592.739a1.64 1.64 0 0 0 1.826.013l8.845-5.807 8.845 5.807a1.646 1.646 0 0 0 1.857-.04c.268-.193.47-.462.579-.771.109-.309.118-.644.028-.958l-2.971-10.238 7.369-6.53c.482-.429.66-1.097.452-1.704zM163.291 19.716l-2.42 10.321c-.075.313-.052.64.065.94s.323.558.591.74a1.635 1.635 0 0 0 1.828.01l8.845-5.807 8.846 5.807a1.644 1.644 0 0 0 1.858-.04c.268-.193.469-.462.578-.771s.119-.644.028-.958l-2.971-10.238 7.369-6.53a1.587 1.587 0 0 0-.088-2.451 1.632 1.632 0 0 0-.869-.332l-9.262-.726-4.008-8.736c-.128-.281-.335-.52-.598-.688a1.638 1.638 0 0 0-1.764 0 1.6 1.6 0 0 0-.598.688l-4.008 8.736-9.261.725c-.311.024-.609.136-.857.323s-.437.439-.543.728a1.586 1.586 0 0 0 .394 1.689l6.845 6.57zm4.634-6.92c.29-.023.568-.121.806-.286s.426-.39.545-.651l2.923-6.368 2.923 6.368a1.627 1.627 0 0 0 1.351.937l6.453.504-5.314 4.709a1.587 1.587 0 0 0-.476 1.628l2.035 7.014-6.069-3.985a1.634 1.634 0 0 0-1.802 0l-6.342 4.164 1.706-7.272a1.579 1.579 0 0 0-.448-1.504l-4.935-4.738 6.644-.521z" style="fill:var(--color24, #f3cd03)"/>
    </symbol>
  </defs>
</svg>
